<?xml version="1.0" encoding="utf-8"?>
<!-- Generator: Adobe Illustrator 16.0.3, SVG Export Plug-In . SVG Version: 6.00 Build 0)  -->
<!DOCTYPE svg PUBLIC "-//W3C//DTD SVG 1.1//EN" "http://www.w3.org/Graphics/SVG/1.1/DTD/svg11.dtd">
<svg version="1.1" id="Layer_1" xmlns="http://www.w3.org/2000/svg" xmlns:xlink="http://www.w3.org/1999/xlink" x="0px" y="0px"
	 width="160px" height="80px" viewBox="0 0 160 80" enable-background="new 0 0 160 80" xml:space="preserve">
<g>
	<defs>
		<rect id="SVGID_1_" x="-9" y="-9" width="174.7" height="99.1"/>
	</defs>
	<clipPath id="SVGID_2_">
		<use xlink:href="#SVGID_1_"  overflow="visible"/>
	</clipPath>
	<path clip-path="url(#SVGID_2_)" fill="#111820" d="M99.9,73.1c0-0.2,0-0.5,0.1-0.7c0.1-0.2,0.2-0.4,0.4-0.6
		c0.2-0.2,0.3-0.3,0.6-0.4c0.2-0.1,0.4-0.1,0.7-0.1c0.2,0,0.5,0,0.7,0.1c0.2,0.1,0.4,0.2,0.6,0.4c0.2,0.2,0.3,0.3,0.4,0.6
		c0.1,0.2,0.1,0.4,0.1,0.7c0,0.3,0,0.5-0.1,0.7c-0.1,0.2-0.2,0.4-0.4,0.6c-0.2,0.2-0.3,0.3-0.6,0.4c-0.2,0.1-0.4,0.1-0.7,0.1
		c-0.2,0-0.5,0-0.7-0.1c-0.2-0.1-0.4-0.2-0.6-0.4c-0.2-0.2-0.3-0.3-0.4-0.6C100,73.6,99.9,73.4,99.9,73.1"/>
	<path clip-path="url(#SVGID_2_)" fill="#111820" d="M38.3,41.8c0.1,0.3,0.2,0.6,0.3,0.9c0.1-0.3,0.2-0.6,0.3-0.9
		c0.1-0.3,0.3-0.6,0.4-0.8l7.8-14.4c0.1-0.2,0.3-0.4,0.4-0.5c0.2-0.1,0.4-0.1,0.6-0.1h2.3v23.4h-2.7V32.2c0-0.2,0-0.5,0-0.7
		c0-0.3,0-0.5,0.1-0.8L40,45.3c-0.3,0.5-0.6,0.7-1.1,0.7h-0.5c-0.5,0-0.9-0.2-1.1-0.7l-8.1-14.7c0,0.3,0.1,0.6,0.1,0.8
		c0,0.3,0,0.5,0,0.8v17.2h-2.7V26h2.3c0.3,0,0.5,0,0.6,0.1c0.2,0.1,0.3,0.2,0.4,0.5l8,14.4C38.1,41.2,38.2,41.5,38.3,41.8"/>
	<path clip-path="url(#SVGID_2_)" fill="#111820" d="M67.8,49.4h-1.3c-0.3,0-0.5,0-0.7-0.1c-0.2-0.1-0.3-0.3-0.3-0.6l-0.3-1.5
		c-0.4,0.4-0.8,0.7-1.3,1.1c-0.4,0.3-0.8,0.6-1.3,0.8c-0.5,0.2-0.9,0.4-1.4,0.5c-0.5,0.1-1.1,0.2-1.7,0.2c-0.6,0-1.2-0.1-1.8-0.3
		c-0.6-0.2-1-0.5-1.4-0.8c-0.4-0.4-0.7-0.8-1-1.4c-0.2-0.6-0.4-1.2-0.4-2c0-0.7,0.2-1.3,0.5-1.9c0.4-0.6,0.9-1.1,1.7-1.6
		c0.8-0.5,1.8-0.9,3.1-1.2c1.3-0.3,2.8-0.5,4.7-0.5v-1.3c0-1.3-0.3-2.3-0.8-2.9c-0.5-0.7-1.3-1-2.4-1c-0.7,0-1.3,0.1-1.8,0.3
		c-0.5,0.2-0.9,0.4-1.2,0.6c-0.4,0.2-0.6,0.4-0.9,0.6c-0.3,0.2-0.5,0.3-0.8,0.3c-0.2,0-0.4,0-0.5-0.2c-0.1-0.1-0.3-0.2-0.3-0.4
		l-0.5-0.9c0.9-0.9,1.9-1.5,2.9-2c1-0.4,2.2-0.7,3.5-0.7c0.9,0,1.7,0.2,2.4,0.5c0.7,0.3,1.3,0.7,1.8,1.3c0.5,0.5,0.9,1.2,1.1,2
		c0.2,0.8,0.4,1.6,0.4,2.5V49.4z M60.3,47.6c0.5,0,1-0.1,1.4-0.2c0.4-0.1,0.8-0.2,1.2-0.4c0.4-0.2,0.7-0.4,1.1-0.7
		c0.3-0.3,0.7-0.6,1-0.9V42c-1.3,0-2.4,0.1-3.4,0.3c-0.9,0.2-1.7,0.4-2.3,0.7c-0.6,0.3-1,0.6-1.3,1c-0.3,0.4-0.4,0.8-0.4,1.2
		c0,0.4,0.1,0.8,0.2,1.1c0.1,0.3,0.3,0.6,0.6,0.8c0.2,0.2,0.5,0.3,0.8,0.4C59.6,47.6,59.9,47.6,60.3,47.6"/>
	<path clip-path="url(#SVGID_2_)" fill="#111820" d="M72.1,49.4V32.9h1.7c0.4,0,0.7,0.2,0.8,0.6l0.2,1.8c0.7-0.8,1.5-1.4,2.4-1.9
		c0.9-0.5,1.9-0.7,3-0.7c0.9,0,1.7,0.2,2.4,0.4c0.7,0.3,1.3,0.7,1.7,1.3c0.5,0.5,0.8,1.2,1,2c0.2,0.8,0.4,1.6,0.4,2.6v10.5h-2.9
		V38.9c0-1.3-0.3-2.2-0.8-2.9c-0.6-0.7-1.4-1-2.6-1c-0.8,0-1.6,0.2-2.4,0.6c-0.7,0.4-1.4,1-2,1.7v12.2H72.1z"/>
	<path clip-path="url(#SVGID_2_)" fill="#111820" d="M95,49.7c-1.3,0-2.3-0.4-3-1.1c-0.7-0.7-1-1.8-1-3.2V35.3h-2
		c-0.2,0-0.3-0.1-0.4-0.2c-0.1-0.1-0.2-0.3-0.2-0.5v-1.2l2.7-0.3l0.7-5.1c0-0.2,0.1-0.3,0.2-0.4c0.1-0.1,0.3-0.2,0.5-0.2h1.5v5.7
		h4.7v2.1h-4.7v9.9c0,0.7,0.2,1.2,0.5,1.6s0.8,0.5,1.3,0.5c0.3,0,0.6,0,0.8-0.1c0.2-0.1,0.4-0.2,0.6-0.3c0.2-0.1,0.3-0.2,0.4-0.3
		c0.1-0.1,0.2-0.1,0.3-0.1c0.1,0,0.3,0.1,0.4,0.3l0.8,1.4c-0.5,0.5-1.1,0.8-1.8,1.1C96.5,49.5,95.7,49.7,95,49.7"/>
	<path clip-path="url(#SVGID_2_)" fill="#111820" d="M108.5,32.6c1,0,1.9,0.2,2.7,0.5c0.8,0.3,1.5,0.8,2.1,1.4
		c0.6,0.6,1.1,1.4,1.4,2.3c0.3,0.9,0.5,2,0.5,3.1c0,0.5,0,0.8-0.1,0.9c-0.1,0.2-0.3,0.2-0.5,0.2h-10.9c0,1,0.2,2,0.4,2.7
		c0.3,0.8,0.6,1.4,1.1,1.9c0.5,0.5,1,0.9,1.6,1.2c0.6,0.3,1.3,0.4,2.1,0.4c0.7,0,1.3-0.1,1.9-0.3c0.5-0.2,1-0.4,1.3-0.5
		c0.4-0.2,0.7-0.4,0.9-0.5c0.3-0.2,0.5-0.3,0.7-0.3c0.2,0,0.4,0.1,0.5,0.3l0.8,1.1c-0.4,0.4-0.8,0.8-1.3,1.1c-0.5,0.3-1,0.6-1.6,0.8
		c-0.6,0.2-1.1,0.4-1.7,0.5c-0.6,0.1-1.2,0.2-1.8,0.2c-1.1,0-2.2-0.2-3.1-0.6c-1-0.4-1.8-0.9-2.5-1.7c-0.7-0.7-1.2-1.7-1.6-2.8
		c-0.4-1.1-0.6-2.4-0.6-3.8c0-1.2,0.2-2.2,0.5-3.2c0.4-1,0.9-1.9,1.5-2.6c0.7-0.7,1.5-1.3,2.4-1.7C106.3,32.8,107.4,32.6,108.5,32.6
		 M108.6,34.8c-1.4,0-2.5,0.4-3.3,1.2c-0.8,0.8-1.3,1.9-1.5,3.4h8.9c0-0.7-0.1-1.3-0.3-1.9c-0.2-0.6-0.5-1-0.8-1.5
		c-0.4-0.4-0.8-0.7-1.3-0.9C109.8,34.9,109.3,34.8,108.6,34.8"/>
	<rect x="119.3" y="26" clip-path="url(#SVGID_2_)" fill="#111820" width="2.9" height="23.4"/>
	<path clip-path="url(#SVGID_2_)" fill="#111820" d="M133.7,32.6c1,0,1.9,0.2,2.7,0.5c0.8,0.3,1.5,0.8,2.1,1.4
		c0.6,0.6,1.1,1.4,1.4,2.3c0.3,0.9,0.5,2,0.5,3.1c0,0.5,0,0.8-0.1,0.9c-0.1,0.2-0.3,0.2-0.5,0.2h-10.9c0,1,0.2,2,0.4,2.7
		c0.3,0.8,0.6,1.4,1.1,1.9c0.5,0.5,1,0.9,1.6,1.2c0.6,0.3,1.3,0.4,2.1,0.4c0.7,0,1.3-0.1,1.9-0.3c0.5-0.2,1-0.4,1.3-0.5
		c0.4-0.2,0.7-0.4,0.9-0.5c0.3-0.2,0.5-0.3,0.7-0.3c0.2,0,0.4,0.1,0.5,0.3l0.8,1.1c-0.4,0.4-0.8,0.8-1.3,1.1c-0.5,0.3-1,0.6-1.6,0.8
		c-0.6,0.2-1.1,0.4-1.7,0.5c-0.6,0.1-1.2,0.2-1.8,0.2c-1.1,0-2.2-0.2-3.1-0.6c-0.9-0.4-1.8-0.9-2.5-1.7c-0.7-0.7-1.2-1.7-1.6-2.8
		c-0.4-1.1-0.6-2.4-0.6-3.8c0-1.2,0.2-2.2,0.5-3.2c0.3-1,0.8-1.9,1.5-2.6c0.7-0.7,1.5-1.3,2.4-1.7C131.4,32.8,132.5,32.6,133.7,32.6
		 M133.7,34.8c-1.4,0-2.5,0.4-3.3,1.2c-0.8,0.8-1.3,1.9-1.5,3.4h8.9c0-0.7-0.1-1.3-0.3-1.9c-0.2-0.6-0.5-1-0.8-1.5
		c-0.4-0.4-0.8-0.7-1.3-0.9C135,34.9,134.4,34.8,133.7,34.8"/>
	<path clip-path="url(#SVGID_2_)" fill="#111820" d="M153.5,35.6c-0.1,0.2-0.3,0.4-0.6,0.4c-0.2,0-0.3-0.1-0.5-0.2
		c-0.2-0.1-0.5-0.3-0.8-0.4c-0.3-0.1-0.6-0.3-1.1-0.4c-0.4-0.1-0.9-0.2-1.4-0.2c-0.5,0-0.9,0.1-1.3,0.2c-0.4,0.1-0.7,0.3-1,0.5
		c-0.3,0.2-0.5,0.5-0.6,0.8c-0.1,0.3-0.2,0.6-0.2,0.9c0,0.4,0.1,0.8,0.4,1.1c0.2,0.3,0.6,0.5,1,0.7c0.4,0.2,0.8,0.4,1.4,0.5
		c0.5,0.2,1,0.3,1.6,0.5c0.5,0.2,1,0.4,1.6,0.6c0.5,0.2,1,0.5,1.4,0.8c0.4,0.3,0.7,0.7,1,1.2c0.2,0.5,0.4,1,0.4,1.7
		c0,0.8-0.1,1.5-0.4,2.1c-0.3,0.6-0.7,1.2-1.2,1.7c-0.5,0.5-1.2,0.8-1.9,1.1c-0.8,0.3-1.6,0.4-2.6,0.4c-1.1,0-2.2-0.2-3.1-0.6
		c-0.9-0.4-1.7-0.9-2.4-1.4l0.7-1.1c0.1-0.1,0.2-0.3,0.3-0.3c0.1-0.1,0.3-0.1,0.5-0.1s0.4,0.1,0.6,0.2c0.2,0.2,0.5,0.3,0.8,0.5
		c0.3,0.2,0.7,0.4,1.1,0.5c0.4,0.2,1,0.2,1.6,0.2c0.6,0,1-0.1,1.5-0.2c0.4-0.1,0.8-0.3,1-0.6c0.3-0.3,0.5-0.5,0.6-0.9
		c0.1-0.3,0.2-0.7,0.2-1c0-0.5-0.1-0.8-0.4-1.1c-0.2-0.3-0.6-0.6-1-0.8c-0.4-0.2-0.8-0.4-1.4-0.6c-0.5-0.2-1-0.3-1.6-0.5
		c-0.5-0.2-1.1-0.4-1.6-0.6c-0.5-0.2-1-0.5-1.4-0.8c-0.4-0.3-0.7-0.8-1-1.2c-0.2-0.5-0.4-1.1-0.4-1.8c0-0.6,0.1-1.2,0.4-1.8
		c0.3-0.6,0.6-1.1,1.1-1.5c0.5-0.4,1.1-0.8,1.8-1.1c0.7-0.3,1.5-0.4,2.5-0.4c1.1,0,2,0.2,2.9,0.5c0.9,0.3,1.6,0.8,2.2,1.4
		L153.5,35.6z"/>
	<rect x="26.6" y="53.9" clip-path="url(#SVGID_2_)" fill="#111820" width="2.5" height="20.8"/>
	<path clip-path="url(#SVGID_2_)" fill="#111820" d="M43.8,74.7h-1.1c-0.2,0-0.4,0-0.6-0.1c-0.1-0.1-0.2-0.2-0.3-0.5l-0.3-1.3
		c-0.4,0.3-0.7,0.6-1.1,0.9c-0.4,0.3-0.7,0.5-1.1,0.7c-0.4,0.2-0.8,0.3-1.2,0.4c-0.4,0.1-0.9,0.1-1.5,0.1c-0.5,0-1.1-0.1-1.5-0.2
		c-0.5-0.2-0.9-0.4-1.3-0.7c-0.4-0.3-0.6-0.7-0.8-1.2c-0.2-0.5-0.3-1-0.3-1.7c0-0.6,0.2-1.1,0.5-1.6c0.3-0.5,0.8-1,1.5-1.4
		c0.7-0.4,1.6-0.7,2.7-1c1.1-0.3,2.5-0.4,4.1-0.4v-1.1c0-1.1-0.2-2-0.7-2.5c-0.5-0.6-1.2-0.9-2.1-0.9c-0.6,0-1.1,0.1-1.5,0.2
		c-0.4,0.2-0.8,0.3-1.1,0.5s-0.6,0.4-0.8,0.5c-0.2,0.2-0.4,0.2-0.7,0.2c-0.2,0-0.3,0-0.4-0.1c-0.1-0.1-0.2-0.2-0.3-0.3l-0.4-0.8
		c0.8-0.8,1.6-1.3,2.5-1.7c0.9-0.4,1.9-0.6,3-0.6c0.8,0,1.5,0.1,2.1,0.4c0.6,0.3,1.1,0.6,1.5,1.1c0.4,0.5,0.7,1,0.9,1.7
		c0.2,0.7,0.3,1.4,0.3,2.2V74.7z M37.4,73.2c0.4,0,0.8,0,1.2-0.1c0.4-0.1,0.7-0.2,1-0.4c0.3-0.2,0.6-0.4,0.9-0.6
		c0.3-0.2,0.6-0.5,0.9-0.8v-3c-1.1,0-2.1,0.1-2.9,0.2c-0.8,0.1-1.5,0.3-2,0.6c-0.5,0.2-0.9,0.5-1.1,0.8c-0.2,0.3-0.3,0.7-0.3,1.1
		c0,0.4,0.1,0.7,0.2,1c0.1,0.3,0.3,0.5,0.5,0.7c0.2,0.2,0.4,0.3,0.7,0.4C36.7,73.1,37,73.2,37.4,73.2"/>
	<path clip-path="url(#SVGID_2_)" fill="#111820" d="M47.6,74.7V60.4H49c0.3,0,0.5,0.1,0.6,0.2c0.1,0.1,0.2,0.3,0.2,0.5l0.2,2.2
		c0.5-1,1.1-1.8,1.8-2.3c0.7-0.6,1.5-0.8,2.5-0.8c0.4,0,0.7,0,1.1,0.1c0.3,0.1,0.6,0.2,0.9,0.4l-0.3,1.9c-0.1,0.2-0.2,0.4-0.4,0.4
		c-0.1,0-0.3,0-0.6-0.1c-0.3-0.1-0.6-0.1-1.1-0.1c-0.9,0-1.6,0.3-2.2,0.8c-0.6,0.5-1.1,1.2-1.5,2.2v9.1H47.6z"/>
	<path clip-path="url(#SVGID_2_)" fill="#111820" d="M63.6,60.1c0.6,0,1.2,0.1,1.7,0.2c0.5,0.1,1,0.3,1.5,0.6h3.8v0.9
		c0,0.3-0.2,0.5-0.6,0.6l-1.6,0.2c0.3,0.6,0.5,1.3,0.5,2c0,0.7-0.1,1.3-0.4,1.9c-0.3,0.6-0.6,1.1-1.1,1.5c-0.5,0.4-1,0.7-1.7,0.9
		c-0.6,0.2-1.4,0.3-2.1,0.3c-0.7,0-1.3-0.1-1.9-0.2c-0.3,0.2-0.5,0.4-0.7,0.6c-0.2,0.2-0.2,0.4-0.2,0.7c0,0.4,0.1,0.6,0.4,0.8
		c0.3,0.2,0.6,0.3,1.1,0.4c0.4,0.1,1,0.1,1.5,0.1h1.7c0.6,0,1.2,0.1,1.7,0.2c0.6,0.1,1.1,0.3,1.5,0.5c0.4,0.2,0.8,0.6,1.1,1
		c0.3,0.4,0.4,1,0.4,1.6c0,0.6-0.2,1.2-0.5,1.8c-0.3,0.6-0.7,1.1-1.3,1.6c-0.6,0.5-1.3,0.8-2.1,1.1c-0.8,0.3-1.7,0.4-2.8,0.4
		c-1,0-1.9-0.1-2.7-0.3c-0.8-0.2-1.4-0.5-1.9-0.8c-0.5-0.4-0.9-0.8-1.2-1.2c-0.3-0.5-0.4-0.9-0.4-1.4c0-0.7,0.2-1.3,0.7-1.8
		c0.4-0.5,1-0.9,1.8-1.2c-0.4-0.2-0.7-0.4-1-0.8c-0.2-0.3-0.4-0.7-0.4-1.3c0-0.2,0-0.4,0.1-0.6c0.1-0.2,0.2-0.4,0.3-0.7
		c0.2-0.2,0.3-0.4,0.6-0.6c0.2-0.2,0.5-0.4,0.8-0.5c-0.7-0.4-1.2-0.9-1.6-1.6c-0.4-0.7-0.6-1.4-0.6-2.3c0-0.7,0.1-1.3,0.4-1.9
		c0.3-0.6,0.6-1.1,1.1-1.5s1-0.7,1.7-0.9C62.1,60.2,62.8,60.1,63.6,60.1 M68,75.4c0-0.4-0.1-0.7-0.3-0.9c-0.2-0.2-0.5-0.4-0.8-0.5
		c-0.3-0.1-0.7-0.2-1.2-0.3c-0.4-0.1-0.9-0.1-1.4-0.1h-1.5c-0.5,0-1-0.1-1.4-0.2c-0.5,0.3-1,0.6-1.3,0.9c-0.3,0.4-0.5,0.8-0.5,1.3
		c0,0.3,0.1,0.6,0.2,0.9c0.2,0.3,0.4,0.5,0.7,0.7c0.3,0.2,0.8,0.4,1.3,0.5C62.4,78,63,78,63.7,78c0.7,0,1.3-0.1,1.8-0.2
		c0.5-0.1,1-0.3,1.3-0.5c0.4-0.2,0.6-0.5,0.8-0.8C67.9,76.2,68,75.8,68,75.4 M63.6,67.7c0.5,0,0.9-0.1,1.3-0.2
		c0.4-0.1,0.7-0.3,1-0.6c0.3-0.3,0.5-0.6,0.6-0.9c0.1-0.4,0.2-0.7,0.2-1.2c0-0.9-0.3-1.6-0.8-2.1c-0.5-0.5-1.3-0.8-2.3-0.8
		c-1,0-1.8,0.3-2.3,0.8c-0.5,0.5-0.8,1.2-0.8,2.1c0,0.4,0.1,0.8,0.2,1.2c0.1,0.3,0.3,0.7,0.6,0.9c0.3,0.3,0.6,0.5,1,0.6
		C62.7,67.6,63.1,67.7,63.6,67.7"/>
	<path clip-path="url(#SVGID_2_)" fill="#111820" d="M78.8,60.2c1,0,2,0.2,2.8,0.5c0.8,0.3,1.5,0.8,2.1,1.5c0.6,0.6,1,1.4,1.3,2.3
		c0.3,0.9,0.5,1.9,0.5,3c0,1.1-0.2,2.2-0.5,3.1c-0.3,0.9-0.8,1.7-1.3,2.3c-0.6,0.6-1.3,1.1-2.1,1.5c-0.8,0.3-1.8,0.5-2.8,0.5
		c-1,0-2-0.2-2.8-0.5c-0.8-0.3-1.5-0.8-2.1-1.5c-0.6-0.6-1-1.4-1.4-2.3c-0.3-0.9-0.5-1.9-0.5-3.1c0-1.1,0.2-2.1,0.5-3
		c0.3-0.9,0.8-1.7,1.4-2.3c0.6-0.6,1.3-1.1,2.1-1.5C76.9,60.3,77.8,60.2,78.8,60.2 M78.8,72.9c1.4,0,2.4-0.5,3.1-1.4
		c0.7-0.9,1-2.3,1-4c0-1.7-0.3-3-1-4c-0.7-1-1.7-1.4-3.1-1.4c-0.7,0-1.3,0.1-1.8,0.4c-0.5,0.2-1,0.6-1.3,1.1c-0.3,0.5-0.6,1-0.8,1.7
		c-0.2,0.7-0.3,1.4-0.3,2.3c0,0.9,0.1,1.6,0.3,2.3c0.2,0.7,0.4,1.2,0.8,1.7c0.3,0.5,0.8,0.8,1.3,1.1C77.5,72.8,78.1,72.9,78.8,72.9"
		/>
	<path clip-path="url(#SVGID_2_)" fill="#111820" d="M96.7,62.7c-0.1,0.2-0.3,0.3-0.5,0.3c-0.1,0-0.3-0.1-0.5-0.2
		c-0.2-0.1-0.4-0.2-0.6-0.3s-0.6-0.2-0.9-0.4c-0.4-0.1-0.8-0.2-1.3-0.2c-0.4,0-0.8,0.1-1.1,0.2c-0.3,0.1-0.6,0.3-0.9,0.4
		c-0.2,0.2-0.4,0.4-0.5,0.7c-0.1,0.2-0.2,0.5-0.2,0.8c0,0.4,0.1,0.7,0.3,0.9c0.2,0.2,0.5,0.5,0.8,0.6c0.3,0.2,0.7,0.3,1.2,0.5
		c0.4,0.1,0.9,0.3,1.3,0.4c0.5,0.2,0.9,0.3,1.3,0.5c0.4,0.2,0.8,0.4,1.2,0.7c0.3,0.3,0.6,0.6,0.8,1c0.2,0.4,0.3,0.9,0.3,1.5
		c0,0.7-0.1,1.3-0.3,1.8c-0.2,0.6-0.6,1-1,1.5c-0.5,0.4-1,0.7-1.7,1c-0.7,0.2-1.4,0.4-2.3,0.4c-1,0-1.9-0.2-2.7-0.5
		c-0.8-0.3-1.5-0.7-2-1.3l0.6-1c0.1-0.1,0.2-0.2,0.3-0.3c0.1-0.1,0.2-0.1,0.4-0.1s0.3,0.1,0.5,0.2c0.2,0.1,0.4,0.3,0.7,0.4
		c0.3,0.2,0.6,0.3,1,0.4c0.4,0.1,0.9,0.2,1.4,0.2c0.5,0,0.9-0.1,1.3-0.2c0.4-0.1,0.7-0.3,0.9-0.5c0.2-0.2,0.4-0.5,0.5-0.7
		c0.1-0.3,0.2-0.6,0.2-0.9c0-0.4-0.1-0.7-0.3-1c-0.2-0.3-0.5-0.5-0.8-0.7c-0.3-0.2-0.7-0.3-1.2-0.5c-0.4-0.1-0.9-0.3-1.4-0.4
		c-0.5-0.2-0.9-0.3-1.4-0.5c-0.4-0.2-0.8-0.4-1.2-0.7c-0.3-0.3-0.6-0.7-0.8-1.1c-0.2-0.4-0.3-0.9-0.3-1.6c0-0.5,0.1-1.1,0.3-1.6
		c0.2-0.5,0.5-0.9,1-1.3c0.4-0.4,1-0.7,1.6-0.9c0.6-0.2,1.3-0.3,2.1-0.3c0.9,0,1.8,0.1,2.5,0.4c0.7,0.3,1.4,0.7,1.9,1.2L96.7,62.7z"
		/>
	<path clip-path="url(#SVGID_2_)" fill="#111820" d="M116.3,62.9c-0.1,0.1-0.1,0.2-0.2,0.2c-0.1,0.1-0.2,0.1-0.3,0.1
		c-0.1,0-0.3-0.1-0.5-0.2c-0.2-0.1-0.4-0.2-0.6-0.4c-0.3-0.1-0.6-0.3-0.9-0.4c-0.4-0.1-0.8-0.2-1.3-0.2c-0.7,0-1.3,0.1-1.8,0.4
		c-0.5,0.3-1,0.6-1.3,1.1c-0.4,0.5-0.6,1-0.8,1.7c-0.2,0.7-0.3,1.4-0.3,2.2c0,0.9,0.1,1.6,0.3,2.3c0.2,0.7,0.5,1.2,0.8,1.7
		c0.4,0.5,0.8,0.8,1.3,1c0.5,0.2,1.1,0.4,1.7,0.4c0.6,0,1.1-0.1,1.5-0.2c0.4-0.1,0.7-0.3,1-0.5c0.3-0.2,0.5-0.3,0.6-0.5
		c0.2-0.1,0.3-0.2,0.5-0.2c0.2,0,0.4,0.1,0.5,0.2l0.7,0.9c-0.6,0.8-1.4,1.3-2.3,1.7c-0.9,0.4-1.9,0.5-2.9,0.5
		c-0.9,0-1.7-0.2-2.5-0.5c-0.8-0.3-1.4-0.8-2-1.4c-0.6-0.6-1-1.4-1.3-2.3c-0.3-0.9-0.5-2-0.5-3.1c0-1.1,0.1-2,0.4-3
		c0.3-0.9,0.7-1.7,1.3-2.3c0.6-0.7,1.3-1.2,2.1-1.5c0.8-0.4,1.8-0.5,2.8-0.5c1,0,1.9,0.2,2.6,0.5c0.8,0.3,1.4,0.8,2,1.4L116.3,62.9z
		"/>
	<path clip-path="url(#SVGID_2_)" fill="#111820" d="M125.4,60.2c1,0,2,0.2,2.8,0.5c0.8,0.3,1.5,0.8,2.1,1.5c0.6,0.6,1,1.4,1.3,2.3
		c0.3,0.9,0.5,1.9,0.5,3c0,1.1-0.2,2.2-0.5,3.1c-0.3,0.9-0.8,1.7-1.3,2.3c-0.6,0.6-1.3,1.1-2.1,1.5c-0.8,0.3-1.8,0.5-2.8,0.5
		c-1,0-2-0.2-2.8-0.5c-0.8-0.3-1.5-0.8-2.1-1.5c-0.6-0.6-1-1.4-1.4-2.3c-0.3-0.9-0.5-1.9-0.5-3.1c0-1.1,0.2-2.1,0.5-3
		c0.3-0.9,0.8-1.7,1.4-2.3c0.6-0.6,1.3-1.1,2.1-1.5C123.5,60.3,124.4,60.2,125.4,60.2 M125.4,72.9c1.4,0,2.4-0.5,3.1-1.4
		c0.7-0.9,1-2.3,1-4c0-1.7-0.3-3-1-4c-0.7-1-1.7-1.4-3.1-1.4c-0.7,0-1.3,0.1-1.8,0.4c-0.5,0.2-1,0.6-1.3,1.1c-0.3,0.5-0.6,1-0.8,1.7
		c-0.2,0.7-0.3,1.4-0.3,2.3c0,0.9,0.1,1.6,0.3,2.3c0.2,0.7,0.4,1.2,0.8,1.7c0.3,0.5,0.8,0.8,1.3,1.1
		C124.1,72.8,124.7,72.9,125.4,72.9"/>
	<path clip-path="url(#SVGID_2_)" fill="#111820" d="M135.2,74.7V60.4h1.5c0.4,0,0.6,0.2,0.7,0.5l0.2,1.5c0.5-0.7,1.1-1.2,1.8-1.6
		c0.6-0.4,1.4-0.6,2.3-0.6c1,0,1.7,0.3,2.3,0.8c0.6,0.5,1,1.3,1.3,2.2c0.2-0.5,0.5-1,0.8-1.3c0.3-0.4,0.7-0.7,1.1-0.9
		c0.4-0.2,0.8-0.4,1.3-0.5s0.9-0.2,1.4-0.2c0.7,0,1.4,0.1,2,0.4c0.6,0.2,1.1,0.6,1.5,1.1c0.4,0.5,0.7,1,0.9,1.7
		c0.2,0.7,0.3,1.4,0.3,2.3v9.1h-2.5v-9.1c0-1.1-0.2-2-0.7-2.6c-0.5-0.6-1.2-0.9-2.1-0.9c-0.4,0-0.8,0.1-1.2,0.2
		c-0.4,0.1-0.7,0.4-1,0.6c-0.3,0.3-0.5,0.6-0.7,1.1c-0.2,0.4-0.2,0.9-0.2,1.5v9.1h-2.5v-9.1c0-1.1-0.2-2-0.7-2.6s-1.1-0.8-2-0.8
		c-0.6,0-1.2,0.2-1.7,0.5c-0.5,0.3-1,0.8-1.4,1.4v10.7H135.2z"/>
</g>
<g>
	<defs>
		<path id="SVGID_3_" d="M30.4,12.8c-0.3,1.9-0.5,3.7-0.8,5.5c-0.3,1.7-0.5,3.5-0.8,5.2c-0.1,0.4-0.1,0.9-0.2,1.3h0.1
			c0-0.1,0.1-0.2,0.1-0.3c0.7-2.6,1.4-5.3,2.1-7.9c0.3-1.2,0.6-2.4,0.9-3.6c0.1-0.5-0.1-0.8-0.6-0.9c-0.1,0-0.1,0-0.2,0
			C30.8,12.2,30.5,12.4,30.4,12.8"/>
	</defs>
	<clipPath id="SVGID_4_">
		<use xlink:href="#SVGID_3_"  overflow="visible"/>
	</clipPath>
	
		<linearGradient id="SVGID_5_" gradientUnits="userSpaceOnUse" x1="-77.9883" y1="131.1221" x2="-77.4353" y2="131.1221" gradientTransform="matrix(-147.1317 0 0 147.1317 -11396.71 -19273.7734)">
		<stop  offset="0" style="stop-color:#B88C1D"/>
		<stop  offset="5.586590e-003" style="stop-color:#B88C1D"/>
		<stop  offset="0.4121" style="stop-color:#CFAA3A"/>
		<stop  offset="1" style="stop-color:#F6DC6B"/>
	</linearGradient>
	<rect x="28.6" y="12.2" clip-path="url(#SVGID_4_)" fill="url(#SVGID_5_)" width="3.3" height="12.7"/>
</g>
<g>
	<defs>
		<path id="SVGID_6_" d="M23.2,12.6c-0.3,0.1-0.5,0.4-0.5,0.7c0,0.2,0,0.3,0.1,0.4c1.3,3.3,2.6,6.6,3.9,9.9c0.2,0.4,0.3,0.9,0.5,1.3
			c0,0,0,0,0.1,0c0-0.1,0-0.1,0-0.2c-1-3.8-2.1-7.7-3.1-11.5c0-0.1,0-0.1-0.1-0.2c-0.1-0.2-0.4-0.4-0.7-0.4
			C23.3,12.6,23.2,12.6,23.2,12.6"/>
	</defs>
	<clipPath id="SVGID_7_">
		<use xlink:href="#SVGID_6_"  overflow="visible"/>
	</clipPath>
	
		<linearGradient id="SVGID_8_" gradientUnits="userSpaceOnUse" x1="-77.9819" y1="131.1211" x2="-77.4388" y2="131.1211" gradientTransform="matrix(-147.1317 0 0 147.1317 -11396.71 -19273.3984)">
		<stop  offset="0" style="stop-color:#B88C1D"/>
		<stop  offset="5.586590e-003" style="stop-color:#B88C1D"/>
		<stop  offset="0.4121" style="stop-color:#CFAA3A"/>
		<stop  offset="1" style="stop-color:#F6DC6B"/>
	</linearGradient>
	<rect x="22.6" y="12.6" clip-path="url(#SVGID_7_)" fill="url(#SVGID_8_)" width="4.6" height="12.3"/>
</g>
<g>
	<defs>
		<path id="SVGID_9_" d="M7,16.2c-0.3,0.6-0.1,1.3,0.6,1.6C7.7,17.8,7.8,17.9,8,18c5.8,2.5,11.7,4.9,17.5,7.4c0.1,0,0.2,0.1,0.3,0.1
			c0,0,0,0,0,0l-0.2-0.1c-0.9-0.5-1.8-1-2.6-1.5c-3.8-2.1-7.5-4.2-11.3-6.3c-1-0.6-2.1-1.2-3.1-1.8c-0.2-0.1-0.4-0.2-0.6-0.2
			C7.6,15.6,7.2,15.8,7,16.2"/>
	</defs>
	<clipPath id="SVGID_10_">
		<use xlink:href="#SVGID_9_"  overflow="visible"/>
	</clipPath>
	
		<linearGradient id="SVGID_11_" gradientUnits="userSpaceOnUse" x1="-77.9858" y1="131.1113" x2="-77.4374" y2="131.1113" gradientTransform="matrix(-147.1317 0 0 147.1317 -11396.71 -19270.1484)">
		<stop  offset="0" style="stop-color:#B88C1D"/>
		<stop  offset="5.586590e-003" style="stop-color:#B88C1D"/>
		<stop  offset="0.4121" style="stop-color:#CFAA3A"/>
		<stop  offset="1" style="stop-color:#F6DC6B"/>
	</linearGradient>
	<rect x="6.7" y="15.6" clip-path="url(#SVGID_10_)" fill="url(#SVGID_11_)" width="19.1" height="9.9"/>
</g>
<g>
	<defs>
		<path id="SVGID_12_" d="M25.9,1.3c-0.7,0.1-1.1,0.8-1,1.5C24.9,3.2,25,3.6,25.1,4c0.3,2.3,0.6,4.6,1,6.9c0.2,1.8,0.5,3.5,0.7,5.3
			c0.2,1.4,0.4,2.8,0.6,4.2c0.2,1.5,0.4,3,0.6,4.5H28v-0.3c-0.1-2.1-0.1-4.3-0.2-6.4c-0.1-2.6-0.2-5.3-0.2-8
			c-0.1-2.6-0.1-5.1-0.2-7.7c0-0.1,0-0.2,0-0.3c-0.1-0.6-0.6-1-1.3-1C26.1,1.3,26,1.3,25.9,1.3"/>
	</defs>
	<clipPath id="SVGID_13_">
		<use xlink:href="#SVGID_12_"  overflow="visible"/>
	</clipPath>
	
		<linearGradient id="SVGID_14_" gradientUnits="userSpaceOnUse" x1="-77.9858" y1="131.1523" x2="-77.4371" y2="131.1523" gradientTransform="matrix(-147.1317 0 0 147.1317 -11396.71 -19283.6484)">
		<stop  offset="0" style="stop-color:#B88C1D"/>
		<stop  offset="5.586590e-003" style="stop-color:#B88C1D"/>
		<stop  offset="0.4121" style="stop-color:#CFAA3A"/>
		<stop  offset="1" style="stop-color:#F6DC6B"/>
	</linearGradient>
	<rect x="24.8" y="1.3" clip-path="url(#SVGID_13_)" fill="url(#SVGID_14_)" width="3.2" height="23.6"/>
</g>
<g>
	<defs>
		<path id="SVGID_15_" d="M39.1,5c-3.3,6.5-6.6,13.1-9.8,19.6c-0.1,0.1-0.1,0.2-0.2,0.3c0,0,0,0,0.1,0c0.1-0.1,0.2-0.2,0.2-0.3
			c3.2-4.9,6.5-9.9,9.7-14.8c0.8-1.2,1.5-2.3,2.3-3.5c0.3-0.5,0.3-1,0-1.5c-0.3-0.4-0.7-0.6-1.1-0.6C39.9,4.2,39.4,4.5,39.1,5"/>
	</defs>
	<clipPath id="SVGID_16_">
		<use xlink:href="#SVGID_15_"  overflow="visible"/>
	</clipPath>
	
		<linearGradient id="SVGID_17_" gradientUnits="userSpaceOnUse" x1="-77.9868" y1="131.1445" x2="-77.4368" y2="131.1445" gradientTransform="matrix(-147.1317 0 0 147.1317 -11396.71 -19281.0234)">
		<stop  offset="0" style="stop-color:#B88C1D"/>
		<stop  offset="5.586590e-003" style="stop-color:#B88C1D"/>
		<stop  offset="0.4121" style="stop-color:#CFAA3A"/>
		<stop  offset="1" style="stop-color:#F6DC6B"/>
	</linearGradient>
	<rect x="29.1" y="4.2" clip-path="url(#SVGID_16_)" fill="url(#SVGID_17_)" width="12.6" height="20.7"/>
</g>
<g>
	<defs>
		<path id="SVGID_18_" d="M16.3,16c-0.2,0.2-0.3,0.6-0.1,0.9c0.1,0.1,0.2,0.2,0.3,0.3c2.7,2.3,5.4,4.5,8.2,6.8
			c0.4,0.3,0.7,0.6,1.1,0.9c0,0,0,0,0,0c0-0.1-0.1-0.1-0.1-0.1c-2.8-2.9-5.5-5.7-8.3-8.6c-0.1-0.1-0.1-0.1-0.2-0.2
			c-0.1-0.1-0.3-0.1-0.4-0.1C16.6,15.8,16.4,15.9,16.3,16"/>
	</defs>
	<clipPath id="SVGID_19_">
		<use xlink:href="#SVGID_18_"  overflow="visible"/>
	</clipPath>
	
		<linearGradient id="SVGID_20_" gradientUnits="userSpaceOnUse" x1="-77.9858" y1="131.1113" x2="-77.4375" y2="131.1113" gradientTransform="matrix(-147.1317 0 0 147.1317 -11396.71 -19270.3984)">
		<stop  offset="0" style="stop-color:#B88C1D"/>
		<stop  offset="5.586590e-003" style="stop-color:#B88C1D"/>
		<stop  offset="0.4121" style="stop-color:#CFAA3A"/>
		<stop  offset="1" style="stop-color:#F6DC6B"/>
	</linearGradient>
	<rect x="16" y="15.8" clip-path="url(#SVGID_19_)" fill="url(#SVGID_20_)" width="9.8" height="9.1"/>
</g>
<g>
	<defs>
		<path id="SVGID_21_" d="M16.8,6.4c-0.5,0.1-0.8,0.4-1,0.9c-0.1,0.4,0,0.7,0.2,1c3.1,5,6.3,10,9.4,15.1c0.3,0.5,0.7,1.1,1,1.6
			c0,0,0,0,0,0c0-0.1-0.1-0.2-0.1-0.2c-2.5-5.3-5-10.6-7.5-15.8C18.5,8.2,18.3,7.6,18,7c-0.2-0.4-0.6-0.6-1-0.6
			C16.9,6.4,16.8,6.4,16.8,6.4"/>
	</defs>
	<clipPath id="SVGID_22_">
		<use xlink:href="#SVGID_21_"  overflow="visible"/>
	</clipPath>
	
		<linearGradient id="SVGID_23_" gradientUnits="userSpaceOnUse" x1="-77.9854" y1="131.1387" x2="-77.4376" y2="131.1387" gradientTransform="matrix(-147.1317 0 0 147.1317 -11396.71 -19279.0234)">
		<stop  offset="0" style="stop-color:#B88C1D"/>
		<stop  offset="5.586590e-003" style="stop-color:#B88C1D"/>
		<stop  offset="0.4121" style="stop-color:#CFAA3A"/>
		<stop  offset="1" style="stop-color:#F6DC6B"/>
	</linearGradient>
	<rect x="15.7" y="6.4" clip-path="url(#SVGID_22_)" fill="url(#SVGID_23_)" width="10.7" height="18.5"/>
</g>
<g>
	<defs>
		<path id="SVGID_24_" d="M13,23.5c-0.2,0.2-0.3,0.5-0.2,0.8c0.1,0.3,0.4,0.5,0.7,0.5c1.2,0.2,2.4,0.3,3.6,0.5
			c2.6,0.3,5.1,0.7,7.7,1c0.3,0.1,0.6,0.1,0.9,0.1c0,0,0,0,0-0.1c-0.1,0-0.2-0.1-0.4-0.1c-3-0.8-6.1-1.5-9.1-2.3
			c-0.9-0.2-1.7-0.4-2.6-0.6c-0.1,0-0.2,0-0.3,0C13.3,23.3,13.1,23.4,13,23.5"/>
	</defs>
	<clipPath id="SVGID_25_">
		<use xlink:href="#SVGID_24_"  overflow="visible"/>
	</clipPath>
	
		<linearGradient id="SVGID_26_" gradientUnits="userSpaceOnUse" x1="-77.9858" y1="131.0859" x2="-77.4376" y2="131.0859" gradientTransform="matrix(-147.1317 0 0 147.1317 -11396.71 -19262.1484)">
		<stop  offset="0" style="stop-color:#B88C1D"/>
		<stop  offset="5.586590e-003" style="stop-color:#B88C1D"/>
		<stop  offset="0.4121" style="stop-color:#CFAA3A"/>
		<stop  offset="1" style="stop-color:#F6DC6B"/>
	</linearGradient>
	<rect x="12.7" y="23.3" clip-path="url(#SVGID_25_)" fill="url(#SVGID_26_)" width="13.1" height="3.1"/>
</g>
<g>
	<defs>
		<path id="SVGID_27_" d="M25.6,28.4c-1.5,0.5-3.1,0.9-4.6,1.4c-3.6,1.1-7.2,2.2-10.8,3.2c-0.6,0.2-0.9,0.7-0.7,1.3
			c0.2,0.5,0.8,0.8,1.3,0.5c0.2-0.1,0.5-0.2,0.7-0.3c4.7-2,9.3-4,14-6c0.1,0,0.2-0.1,0.3-0.1c0,0,0,0,0-0.1
			C25.7,28.3,25.6,28.4,25.6,28.4"/>
	</defs>
	<clipPath id="SVGID_28_">
		<use xlink:href="#SVGID_27_"  overflow="visible"/>
	</clipPath>
	
		<linearGradient id="SVGID_29_" gradientUnits="userSpaceOnUse" x1="-77.9868" y1="131.0488" x2="-77.4368" y2="131.0488" gradientTransform="matrix(-147.1317 0 0 147.1317 -11396.71 -19249.8984)">
		<stop  offset="0" style="stop-color:#B88C1D"/>
		<stop  offset="5.586590e-003" style="stop-color:#B88C1D"/>
		<stop  offset="0.4121" style="stop-color:#CFAA3A"/>
		<stop  offset="1" style="stop-color:#F6DC6B"/>
	</linearGradient>
	<rect x="9.2" y="28.3" clip-path="url(#SVGID_28_)" fill="url(#SVGID_29_)" width="16.5" height="6.7"/>
</g>
<g>
	<defs>
		<path id="SVGID_30_" d="M25.5,27.4c-1,0-2,0.1-3,0.1c-1.5,0.1-3,0.1-4.5,0.2c-1.5,0.1-3,0.1-4.5,0.2c-1.9,0.1-3.8,0.2-5.6,0.2
			c-1.4,0.1-2.9,0.1-4.3,0.2c-0.1,0-0.2,0-0.4,0.1c-0.5,0.2-0.9,0.7-0.9,1.2c0,0.6,0.4,1.1,1,1.2c0.2,0,0.5,0,0.7,0
			c1.3-0.2,2.6-0.4,3.9-0.6c2.1-0.3,4.2-0.6,6.2-1c2-0.3,3.9-0.6,5.9-0.9c1.9-0.3,3.8-0.6,5.8-0.9c0,0,0,0,0,0
			C25.7,27.4,25.6,27.4,25.5,27.4C25.5,27.4,25.5,27.4,25.5,27.4"/>
	</defs>
	<clipPath id="SVGID_31_">
		<use xlink:href="#SVGID_30_"  overflow="visible"/>
	</clipPath>
	
		<linearGradient id="SVGID_32_" gradientUnits="userSpaceOnUse" x1="-77.9854" y1="131.0625" x2="-77.4376" y2="131.0625" gradientTransform="matrix(-147.1317 0 0 147.1317 -11396.71 -19254.5234)">
		<stop  offset="0" style="stop-color:#B88C1D"/>
		<stop  offset="5.586590e-003" style="stop-color:#B88C1D"/>
		<stop  offset="0.4121" style="stop-color:#CFAA3A"/>
		<stop  offset="1" style="stop-color:#F6DC6B"/>
	</linearGradient>
	<rect x="2.3" y="27.4" clip-path="url(#SVGID_31_)" fill="url(#SVGID_32_)" width="23.5" height="3.5"/>
</g>
</svg>
